<?xml version="1.0" encoding="UTF-8"?>
<svg width="253px" height="81px" viewBox="0 0 253 81" version="1.1" xmlns="http://www.w3.org/2000/svg" xmlns:xlink="http://www.w3.org/1999/xlink">
    <!-- Generator: Sketch 44.1 (41455) - http://www.bohemiancoding.com/sketch -->
    <title>Artboard</title>
    <desc>Created with Sketch.</desc>
    <defs>
        <polygon id="path-1" points="0 0.2952 0 70.3772 57.9326 70.3772 57.9326 0.2952 5.42101086e-20 0.2952"></polygon>
        <polygon id="path-3" points="0 79.5986 252.419 79.5986 252.419 -0.0004 0 -0.0004"></polygon>
    </defs>
    <g id="Page-1" stroke="none" stroke-width="1" fill="none" fill-rule="evenodd">
        <g id="Artboard">
            <g id="LogoBALMS" transform="translate(0.000000, 1.000000)">
                <g id="Group-3" transform="translate(0.000000, 8.598600)">
                    <mask id="mask-2" fill="white">
                        <use xlink:href="#path-1"></use>
                    </mask>
                    <g id="Clip-2"></g>
                    <path d="M7.2266,63.0332 L39.1096,63.0332 C43.5086,63.0332 46.4686,62.3202 47.9876,60.8892 C49.5026,59.4632 50.2586,55.7532 50.2586,49.7602 C50.2586,44.7092 49.4146,41.4402 47.7186,39.9472 C46.0216,38.4572 41.6216,37.7112 34.5166,37.7112 L7.2266,37.7112 L7.2266,63.0332 Z M7.2266,30.5562 L38.8416,30.5562 C42.7356,30.5562 45.3546,29.8212 46.6936,28.3452 C48.0316,26.8712 48.7006,23.6222 48.7006,18.6042 C48.7006,13.8032 47.9876,10.7912 46.5596,9.5662 C45.1306,8.3422 41.4876,7.7302 35.6306,7.7302 L7.2266,7.7302 L7.2266,30.5562 Z M-0.0004,70.3772 L-0.0004,0.2952 L38.5736,0.2952 C45.7096,0.2952 50.4456,1.4412 52.7806,3.7302 C55.1156,6.0242 56.2816,10.6972 56.2816,17.7562 C56.2816,23.1842 55.7086,26.9892 54.5646,29.1692 C53.4196,31.3512 51.4046,32.8492 48.5186,33.6642 C52.0286,34.6052 54.4756,36.2772 55.8546,38.6782 C57.2406,41.0762 57.9326,45.1152 57.9326,50.7962 C57.9326,58.5152 56.4896,63.7092 53.6056,66.3752 C50.7216,69.0412 44.9356,70.3772 36.2566,70.3772 L-0.0004,70.3772 Z" id="Fill-1" fill="#A41D31" mask="url(#mask-2)"></path>
                </g>
                <path d="M96.9141,67.0205 L96.9141,62.0685 C96.9141,59.8375 95.7771,58.2055 93.5011,57.1635 C91.2261,56.1225 87.6071,55.6015 82.6411,55.6015 C78.0911,55.6015 75.0511,56.1735 73.5181,57.3185 C71.9871,58.4635 71.2221,60.6575 71.2221,63.8975 C71.2221,67.5845 72.0311,70.0455 73.6521,71.2805 C75.2721,72.5125 78.5211,73.1315 83.3971,73.1315 C87.7701,73.1315 91.1141,72.6025 93.4331,71.5475 C95.7521,70.4915 96.9141,68.9815 96.9141,67.0205 L96.9141,67.0205 Z M97.2691,74.0225 C96.1991,75.9855 94.4971,77.4075 92.1641,78.2845 C89.8271,79.1595 86.5941,79.5985 82.4601,79.5985 C75.1161,79.5985 70.1951,78.5505 67.6961,76.4535 C65.2001,74.3585 63.9501,70.4545 63.9501,64.7445 C63.9501,61.4455 64.2411,58.8565 64.8211,56.9835 C65.3991,55.1105 66.3611,53.6085 67.6961,52.4775 C68.8301,51.5275 70.4861,50.8515 72.6701,50.4485 C74.8571,50.0455 78.0011,49.8465 82.1051,49.8465 C86.3571,49.8465 89.6061,50.1985 91.8521,50.8955 C94.0971,51.5945 95.7831,52.7625 96.9141,54.3975 L96.9141,46.2795 C96.9141,42.4445 96.1711,39.9615 94.6821,38.8315 C93.1971,37.7005 89.4631,37.1365 83.4871,37.1365 C79.1471,37.1365 76.2621,37.5885 74.8351,38.4955 C73.4081,39.4015 72.6641,41.1065 72.6041,43.6025 L65.6901,43.6025 L65.6901,42.5335 C65.6901,38.5185 66.9911,35.6575 69.5921,33.9465 C72.1961,32.2385 76.6801,31.3835 83.0421,31.3835 C88.0081,31.3835 91.7841,31.5885 94.3711,32.0075 C96.9571,32.4235 98.8751,33.0925 100.1231,34.0135 C101.4911,35.0845 102.4581,36.4055 103.0231,37.9835 C103.5871,39.5595 103.8721,42.2655 103.8721,46.1015 L103.8721,78.9755 L97.5371,78.9755 L97.2691,74.0225 Z" id="Fill-4" fill="#A41D31"></path>
                <mask id="mask-4" fill="white">
                    <use xlink:href="#path-3"></use>
                </mask>
                <g id="Clip-7"></g>
                <polygon id="Fill-6" fill="#A41D31" mask="url(#mask-4)" points="115.127 78.9756 122.042 78.9756 122.042 8.8936 115.127 8.8936"></polygon>
                <path d="M135.2197,78.9756 L135.2197,32.0076 L142.0007,32.0076 L142.0007,38.4286 C142.9817,36.0216 144.6237,34.2446 146.9287,33.0966 C149.2337,31.9546 152.2747,31.3836 156.0497,31.3836 C160.0357,31.3836 163.1497,31.9896 165.3937,33.2096 C167.6397,34.4286 169.3127,36.4056 170.4157,39.1436 C171.7807,36.4056 173.5877,34.4286 175.8337,33.2096 C178.0767,31.9896 181.0147,31.3836 184.6417,31.3836 C190.7947,31.3836 195.0627,32.6006 197.4427,35.0396 C199.8207,37.4766 201.0127,41.8626 201.0127,48.1976 L201.0127,78.9756 L194.0537,78.9756 L194.0537,50.3836 C194.0537,45.1476 193.3777,41.7216 192.0247,40.1016 C190.6707,38.4796 188.0307,37.6686 184.1067,37.6686 C179.7657,37.6686 176.6047,38.7786 174.6287,40.9936 C172.6507,43.2096 171.6607,46.7696 171.6607,51.6756 L171.6607,78.9756 L164.9267,78.9756 L164.9267,47.1696 C164.9267,43.4546 164.2497,40.9446 162.8967,39.6336 C161.5437,38.3256 158.9637,37.6686 155.1567,37.6686 C150.6987,37.6686 147.4207,38.8006 145.3237,41.0596 C143.2267,43.3216 142.1777,46.8586 142.1777,51.6756 L142.1777,78.9756 L135.2197,78.9756 Z" id="Fill-8" fill="#A41D31" mask="url(#mask-4)"></path>
                <path d="M211.4302,65.0107 L218.4752,65.0107 L218.4752,66.0837 C218.4752,68.9687 219.3682,70.9517 221.1532,72.0387 C222.9382,73.1237 226.5212,73.6647 231.9032,73.6647 C237.9392,73.6647 241.6562,73.1147 243.0532,72.0157 C244.4512,70.9157 245.1502,68.7907 245.1502,65.6397 C245.1502,62.5747 244.5772,60.5297 243.4322,59.5047 C242.2882,58.4777 239.4262,57.8457 234.8472,57.6087 C233.1512,57.5207 230.8612,57.4297 227.9792,57.3417 C221.6732,57.1627 217.9292,56.7327 216.7392,56.0477 C214.9552,55.0667 213.6812,53.7277 212.9252,52.0337 C212.1652,50.3397 211.7852,47.8997 211.7852,44.7177 C211.7852,39.5147 213.1092,35.9907 215.7552,34.1467 C218.4022,32.3057 224.2312,31.3837 233.2402,31.3837 C240.2292,31.3837 244.9662,32.2597 247.4462,34.0127 C249.9282,35.7687 251.1722,38.8447 251.1722,43.2467 L244.2142,43.2467 L244.2142,42.7997 C244.2142,40.7197 243.3142,39.2827 241.5142,38.4947 C239.7142,37.7097 236.1402,37.3137 230.7882,37.3137 C225.6142,37.3137 222.3122,37.7907 220.8842,38.7417 C219.4572,39.6937 218.7442,41.6857 218.7442,44.7177 C218.7442,46.5617 218.8782,47.8567 219.1462,48.5987 C219.4122,49.3427 219.8882,49.9067 220.5742,50.2937 C221.9722,51.0387 225.0632,51.4687 229.8502,51.5887 C231.0702,51.6157 232.0072,51.6477 232.6622,51.6757 C236.5862,51.8257 239.6632,52.0267 241.8942,52.2787 C244.1212,52.5317 245.7152,52.8797 246.6672,53.3267 C248.7482,54.2787 250.2282,55.6457 251.1052,57.4297 C251.9812,59.2137 252.4192,61.8017 252.4192,65.1907 C252.4192,68.6407 251.9902,71.2567 251.1272,73.0427 C250.2642,74.8267 248.7192,76.4037 246.4882,77.7697 C245.4782,78.4247 243.8282,78.8927 241.5362,79.1757 C239.2482,79.4557 236.0652,79.5987 231.9902,79.5987 C223.6662,79.5987 218.1572,78.6397 215.4672,76.7207 C212.7742,74.8037 211.4302,71.3177 211.4302,66.2607 L211.4302,65.0107 Z" id="Fill-9" fill="#A41D31" mask="url(#mask-4)"></path>
                <path d="M142.7314,10.4043 C141.8574,10.4043 141.0554,10.6193 140.3174,11.0483 C139.5804,11.4753 138.9934,12.0773 138.5594,12.8513 C138.1214,13.6263 137.9034,14.4463 137.9034,15.3093 C137.9034,16.1663 138.1234,16.9853 138.5624,17.7683 C139.0044,18.5503 139.5934,19.1593 140.3344,19.5963 C141.0764,20.0313 141.8694,20.2493 142.7194,20.2493 C143.5774,20.2493 144.3904,20.0323 145.1554,19.6023 C145.9234,19.1693 146.5124,18.5853 146.9274,17.8473 C147.3414,17.1093 147.5474,16.2783 147.5474,15.3553 C147.5474,13.9463 147.0844,12.7703 146.1554,11.8233 C145.2294,10.8773 144.0854,10.4043 142.7314,10.4043 L142.7314,10.4043 Z M148.9914,9.2083 L148.9914,21.3813 L147.4474,21.3813 L147.4474,19.2863 C146.7904,20.0853 146.0544,20.6843 145.2384,21.0883 C144.4204,21.4913 143.5294,21.6923 142.5584,21.6923 C140.8354,21.6923 139.3654,21.0683 138.1434,19.8193 C136.9224,18.5693 136.3154,17.0503 136.3154,15.2593 C136.3154,13.5073 136.9314,12.0083 138.1604,10.7603 C139.3894,9.5163 140.8714,8.8933 142.6024,8.8933 C143.6024,8.8933 144.5074,9.1063 145.3134,9.5303 C146.1244,9.9583 146.8354,10.5943 147.4474,11.4453 L147.4474,9.2083 L148.9914,9.2083 Z" id="Fill-10" fill="#A41D31" mask="url(#mask-4)"></path>
                <path d="M158.8804,20.1806 C159.7514,20.1806 160.5554,19.9676 161.2904,19.5386 C162.0274,19.1106 162.6144,18.5076 163.0504,17.7326 C163.4854,16.9586 163.7014,16.1366 163.7014,15.2706 C163.7014,14.4076 163.4834,13.5826 163.0434,12.7996 C162.6044,12.0146 162.0144,11.4056 161.2744,10.9686 C160.5334,10.5326 159.7424,10.3136 158.9014,10.3136 C158.0464,10.3136 157.2324,10.5326 156.4644,10.9686 C155.6924,11.4056 155.1004,11.9936 154.6894,12.7316 C154.2744,13.4696 154.0684,14.3016 154.0684,15.2276 C154.0684,16.6356 154.5344,17.8146 155.4604,18.7606 C156.3854,19.7076 157.5264,20.1806 158.8804,20.1806 L158.8804,20.1806 Z M152.6154,21.3806 L152.6154,-0.0004 L154.1824,-0.0004 L154.1824,11.2996 C154.8354,10.4936 155.5724,9.8916 156.3834,9.4916 C157.1964,9.0936 158.0874,8.8936 159.0544,8.8936 C160.7744,8.8936 162.2434,9.5196 163.4624,10.7686 C164.6824,12.0176 165.2924,13.5346 165.2924,15.3166 C165.2924,17.0756 164.6734,18.5786 163.4464,19.8236 C162.2174,21.0706 160.7374,21.6926 159.0124,21.6926 C158.0194,21.6926 157.1224,21.4796 156.3154,21.0546 C155.5094,20.6296 154.8004,19.9916 154.1824,19.1416 L154.1824,21.3806 L152.6154,21.3806 Z" id="Fill-11" fill="#A41D31" mask="url(#mask-4)"></path>
                <path d="M173.8994,10.4257 C172.5984,10.4257 171.4794,10.9067 170.5424,11.8707 C169.6054,12.8307 169.1374,13.9947 169.1374,15.3607 C169.1374,16.2417 169.3514,17.0597 169.7804,17.8227 C170.2044,18.5807 170.7824,19.1687 171.5064,19.5827 C172.2334,19.9967 173.0294,20.2047 173.8994,20.2047 C174.7664,20.2047 175.5654,19.9967 176.2914,19.5827 C177.0174,19.1687 177.5934,18.5807 178.0214,17.8227 C178.4454,17.0597 178.6584,16.2417 178.6584,15.3607 C178.6584,13.9947 178.1894,12.8307 177.2504,11.8707 C176.3134,10.9067 175.1954,10.4257 173.8994,10.4257 M173.9054,8.8937 C175.7794,8.8937 177.3354,9.5737 178.5674,10.9287 C179.6864,12.1677 180.2484,13.6347 180.2484,15.3257 C180.2484,17.0267 179.6554,18.5127 178.4734,19.7857 C177.2894,21.0557 175.7664,21.6927 173.9054,21.6927 C172.0374,21.6927 170.5104,21.0557 169.3274,19.7857 C168.1404,18.5127 167.5504,17.0267 167.5504,15.3257 C167.5504,13.6407 168.1124,12.1787 169.2324,10.9427 C170.4634,9.5747 172.0224,8.8937 173.9054,8.8937" id="Fill-12" fill="#A41D31" mask="url(#mask-4)"></path>
                <path d="M189.0181,10.4043 C188.1321,10.4043 187.3071,10.6193 186.5451,11.0483 C185.7861,11.4753 185.1891,12.0703 184.7561,12.8253 C184.3231,13.5843 184.1081,14.4013 184.1081,15.2833 C184.1081,16.6163 184.5561,17.7213 185.4521,18.5923 C186.3431,19.4663 187.5051,19.9033 188.9291,19.9033 C190.3691,19.9033 191.5281,19.4703 192.4041,18.6063 C193.2801,17.7413 193.7161,16.6023 193.7161,15.1923 C193.7161,14.2763 193.5181,13.4563 193.1151,12.7353 C192.7111,12.0173 192.1411,11.4483 191.4011,11.0303 C190.6631,10.6123 189.8691,10.4043 189.0181,10.4043 L189.0181,10.4043 Z M193.6401,9.2083 L195.2051,9.2083 L195.2051,18.9053 C195.2051,20.6143 195.0541,21.8633 194.7601,22.6543 C194.3461,23.7743 193.6361,24.6343 192.6211,25.2393 C191.6061,25.8423 190.3881,26.1433 188.9651,26.1433 C187.9181,26.1433 186.9801,25.9973 186.1491,25.7033 C185.3191,25.4073 184.6391,25.0093 184.1201,24.5123 C183.5971,24.0143 183.1161,23.2883 182.6771,22.3313 L184.3761,22.3313 C184.8371,23.1353 185.4351,23.7313 186.1701,24.1193 C186.9001,24.5083 187.8091,24.7033 188.8891,24.7033 C189.9581,24.7033 190.8591,24.5043 191.5961,24.1053 C192.3311,23.7083 192.8541,23.2083 193.1691,22.6053 C193.4821,22.0043 193.6401,21.0303 193.6401,19.6893 L193.6401,19.0633 C193.0491,19.8093 192.3291,20.3823 191.4791,20.7803 C190.6261,21.1783 189.7261,21.3813 188.7681,21.3813 C187.6471,21.3813 186.5961,21.1023 185.6111,20.5463 C184.6251,19.9893 183.8621,19.2413 183.3251,18.3033 C182.7871,17.3623 182.5191,16.3293 182.5191,15.2043 C182.5191,14.0773 182.7991,13.0273 183.3601,12.0533 C183.9201,11.0813 184.6941,10.3113 185.6821,9.7453 C186.6711,9.1763 187.7171,8.8933 188.8111,8.8933 C189.7261,8.8933 190.5741,9.0813 191.3621,9.4583 C192.1461,9.8363 192.9071,10.4563 193.6401,11.3213 L193.6401,9.2083 Z" id="Fill-13" fill="#A41D31" mask="url(#mask-4)"></path>
                <path d="M204.4302,10.4043 C203.5562,10.4043 202.7532,10.6193 202.0152,11.0483 C201.2782,11.4753 200.6902,12.0773 200.2572,12.8513 C199.8202,13.6263 199.6032,14.4463 199.6032,15.3093 C199.6032,16.1663 199.8232,16.9853 200.2632,17.7683 C200.7002,18.5503 201.2912,19.1593 202.0332,19.5963 C202.7742,20.0313 203.5692,20.2493 204.4182,20.2493 C205.2742,20.2493 206.0862,20.0323 206.8562,19.6023 C207.6232,19.1693 208.2102,18.5853 208.6262,17.8473 C209.0402,17.1093 209.2472,16.2783 209.2472,15.3553 C209.2472,13.9463 208.7812,12.7703 207.8572,11.8233 C206.9262,10.8773 205.7832,10.4043 204.4302,10.4043 L204.4302,10.4043 Z M210.6892,9.2083 L210.6892,21.3813 L209.1472,21.3813 L209.1472,19.2863 C208.4882,20.0853 207.7522,20.6843 206.9372,21.0883 C206.1192,21.4913 205.2262,21.6923 204.2562,21.6923 C202.5342,21.6923 201.0642,21.0683 199.8422,19.8193 C198.6232,18.5693 198.0142,17.0503 198.0142,15.2593 C198.0142,13.5073 198.6272,12.0083 199.8592,10.7603 C201.0882,9.5163 202.5722,8.8933 204.3002,8.8933 C205.3002,8.8933 206.2042,9.1063 207.0152,9.5303 C207.8232,9.9583 208.5342,10.5943 209.1472,11.4453 L209.1472,9.2083 L210.6892,9.2083 Z" id="Fill-14" fill="#A41D31" mask="url(#mask-4)"></path>
                <path d="M220.104,10.4043 C219.232,10.4043 218.428,10.6193 217.69,11.0483 C216.953,11.4753 216.365,12.0773 215.928,12.8513 C215.494,13.6263 215.277,14.4463 215.277,15.3093 C215.277,16.1663 215.495,16.9853 215.933,17.7683 C216.375,18.5503 216.965,19.1593 217.705,19.5963 C218.448,20.0313 219.243,20.2493 220.093,20.2493 C220.949,20.2493 221.76,20.0323 222.528,19.6023 C223.297,19.1693 223.887,18.5853 224.299,17.8473 C224.712,17.1093 224.918,16.2783 224.918,15.3553 C224.918,13.9463 224.458,12.7703 223.527,11.8233 C222.601,10.8773 221.46,10.4043 220.104,10.4043 L220.104,10.4043 Z M226.363,0.0003 L226.363,21.3813 L224.82,21.3813 L224.82,19.2863 C224.161,20.0853 223.428,20.6843 222.608,21.0883 C221.792,21.4913 220.898,21.6923 219.928,21.6923 C218.207,21.6923 216.738,21.0683 215.517,19.8193 C214.298,18.5693 213.689,17.0503 213.689,15.2593 C213.689,13.5073 214.303,12.0083 215.532,10.7603 C216.764,9.5163 218.243,8.8933 219.976,8.8933 C220.971,8.8933 221.876,9.1063 222.687,9.5303 C223.498,9.9583 224.209,10.5943 224.82,11.4453 L224.82,0.0003 L226.363,0.0003 Z" id="Fill-15" fill="#A41D31" mask="url(#mask-4)"></path>
                <path d="M235.6655,10.4257 C234.3635,10.4257 233.2455,10.9067 232.3065,11.8707 C231.3735,12.8307 230.9045,13.9947 230.9045,15.3607 C230.9045,16.2417 231.1165,17.0597 231.5445,17.8227 C231.9705,18.5807 232.5475,19.1687 233.2745,19.5827 C233.9985,19.9967 234.7965,20.2047 235.6655,20.2047 C236.5345,20.2047 237.3305,19.9967 238.0585,19.5827 C238.7835,19.1687 239.3605,18.5807 239.7855,17.8227 C240.2125,17.0597 240.4265,16.2417 240.4265,15.3607 C240.4265,13.9947 239.9565,12.8307 239.0175,11.8707 C238.0775,10.9067 236.9605,10.4257 235.6655,10.4257 M235.6705,8.8937 C237.5465,8.8937 239.0985,9.5737 240.3315,10.9287 C241.4545,12.1677 242.0145,13.6347 242.0145,15.3257 C242.0145,17.0267 241.4215,18.5127 240.2375,19.7857 C239.0535,21.0557 237.5315,21.6927 235.6705,21.6927 C233.8035,21.6927 232.2785,21.0557 231.0925,19.7857 C229.9065,18.5127 229.3165,17.0267 229.3165,15.3257 C229.3165,13.6407 229.8775,12.1787 230.9975,10.9427 C232.2315,9.5747 233.7895,8.8937 235.6705,8.8937" id="Fill-16" fill="#A41D31" mask="url(#mask-4)"></path>
                <path d="M251.0327,10.539 L250.0237,11.579 C249.1867,10.767 248.3677,10.36 247.5677,10.36 C247.0587,10.36 246.6217,10.527 246.2607,10.86 C245.8977,11.198 245.7167,11.591 245.7167,12.036 C245.7167,12.433 245.8657,12.809 246.1657,13.168 C246.4627,13.534 247.0937,13.962 248.0487,14.455 C249.2127,15.06 250.0067,15.64 250.4257,16.199 C250.8367,16.765 251.0427,17.406 251.0427,18.112 C251.0427,19.112 250.6897,19.958 249.9897,20.653 C249.2887,21.345 248.4107,21.692 247.3557,21.692 C246.6527,21.692 245.9837,21.54 245.3457,21.233 C244.7077,20.929 244.1787,20.507 243.7587,19.97 L244.7437,18.851 C245.5427,19.753 246.3917,20.205 247.2877,20.205 C247.9187,20.205 248.4517,20.005 248.8947,19.599 C249.3347,19.198 249.5547,18.724 249.5547,18.179 C249.5547,17.733 249.4087,17.333 249.1167,16.982 C248.8257,16.64 248.1687,16.206 247.1437,15.685 C246.0467,15.116 245.2997,14.558 244.9027,14.007 C244.5057,13.455 244.3087,12.826 244.3087,12.116 C244.3087,11.192 244.6227,10.423 245.2557,9.81 C245.8857,9.2 246.6837,8.893 247.6467,8.893 C248.7667,8.893 249.8947,9.443 251.0327,10.539" id="Fill-17" fill="#A41D31" mask="url(#mask-4)"></path>
            </g>
        </g>
    </g>
</svg>